<svg xmlns="http://www.w3.org/2000/svg" viewBox="0 0 37.24 37.24"><defs><style>.cls-1{fill:#eda835;}</style></defs><title>Ресурс 1</title><g id="Слой_2" data-name="Слой 2"><g id="Слой_1-2" data-name="Слой 1"><path class="cls-1" d="M18.62,22.35a3.73,3.73,0,1,0-3.72-3.73,3.73,3.73,0,0,0,3.72,3.73Zm0,0"/><path class="cls-1" d="M26.76,14.06V10.47H23.17v3.59Zm0,0"/><path class="cls-1" d="M18.62,0A18.62,18.62,0,1,0,37.24,18.62,18.64,18.64,0,0,0,18.62,0ZM29.21,16.45v8.67a4.1,4.1,0,0,1-4.09,4.09h-13A4.1,4.1,0,0,1,8,25.12v-13A4.1,4.1,0,0,1,12.12,8h13a4.1,4.1,0,0,1,4.09,4.09Zm0,0"/><path class="cls-1" d="M24.41,18.62a5.79,5.79,0,1,1-11.16-2.18H10.09v8.67a2,2,0,0,0,2,2h13a2,2,0,0,0,2-2V16.45H24a5.68,5.68,0,0,1,.43,2.18Zm0,0"/></g></g></svg>