<svg xmlns="http://www.w3.org/2000/svg" viewBox="0 0 37.24 37.24"><defs><style>.cls-1{fill:#eda835;}</style></defs><title>Ресурс 1</title><g id="Слой_2" data-name="Слой 2"><g id="Слой_1-2" data-name="Слой 1"><path class="cls-1" d="M18.62,0A18.62,18.62,0,1,0,37.24,18.62,18.64,18.64,0,0,0,18.62,0Zm8.3,14.36c0,.18,0,.37,0,.56A12.19,12.19,0,0,1,8.18,25.18a8.84,8.84,0,0,0,1,.06,8.6,8.6,0,0,0,5.33-1.84,4.29,4.29,0,0,1-4-3,4.3,4.3,0,0,0,1.94-.07A4.29,4.29,0,0,1,9,16.16V16.1a4.25,4.25,0,0,0,1.94.53,4.29,4.29,0,0,1-1.33-5.72,12.18,12.18,0,0,0,8.83,4.48,4.29,4.29,0,0,1,7.3-3.91,8.55,8.55,0,0,0,2.72-1,4.32,4.32,0,0,1-1.89,2.37,8.38,8.38,0,0,0,2.46-.67,8.66,8.66,0,0,1-2.14,2.22Zm0,0"/></g></g></svg>