<svg xmlns="http://www.w3.org/2000/svg" viewBox="0 0 73.31 73.31"><defs><style>.cls-1{fill:#eda835;}</style></defs><title>Ресурс 2</title><g id="Слой_2" data-name="Слой 2"><g id="Слой_1-2" data-name="Слой 1"><path class="cls-1" d="M36.66,0A36.66,36.66,0,1,0,73.31,36.66,36.66,36.66,0,0,0,36.66,0ZM55.25,40.62A69.6,69.6,0,0,1,60.3,45.7a14.42,14.42,0,0,1,1.81,2.6c.7,1.35.07,2.83-1.14,2.91H53.46a5.81,5.81,0,0,1-4.79-1.95c-1-1.06-2-2.19-3-3.28a7.22,7.22,0,0,0-1.35-1.2,1.57,1.57,0,0,0-2.5.61A7.84,7.84,0,0,0,41,48.9c-.08,1.77-.62,2.24-2.39,2.32a19.2,19.2,0,0,1-10.75-2.31,23.79,23.79,0,0,1-7.23-6.77,91.28,91.28,0,0,1-9.52-17c-.6-1.34-.16-2.05,1.31-2.08,2.45,0,4.9,0,7.36,0a2.16,2.16,0,0,1,2,1.53,45.61,45.61,0,0,0,5,9.23,7.87,7.87,0,0,0,1.88,2.07,1.14,1.14,0,0,0,1.94-.57,6.15,6.15,0,0,0,.43-1.94A29,29,0,0,0,31,26.62,2.83,2.83,0,0,0,28.55,24c-.71-.14-.61-.4-.26-.81a2.69,2.69,0,0,1,2.31-1.15h8.48c1.34.26,1.64.86,1.82,2.21v9.43c0,.52.26,2.07,1.19,2.41.75.25,1.25-.36,1.7-.83a29.22,29.22,0,0,0,4.78-7.34c.57-1.16,1.07-2.37,1.55-3.57A1.83,1.83,0,0,1,52,23.05h8.17a4.46,4.46,0,0,1,.72,0c1.38.23,1.75.83,1.33,2.17A20.34,20.34,0,0,1,59,30.91c-1.36,1.89-2.82,3.71-4.17,5.6-1.24,1.73-1.15,2.61.4,4.11Zm0,0"/></g></g></svg>